name GIL03_slow3Moments.mot
datacolumns 7
datarows 47
range 0.24166663 0.62500000
endheader

                time	          RHipMoment	          LHipMoment	         RKneeMoment	         LKneeMoment	        RAnkleMoment	        LAnkleMoment	
          0.24166663	        243.78604126	          3.71641970	        253.69042969	        -14.23576164	        175.62564087	        -37.96980667	
          0.24999996	        223.11515808	        -28.19408989	        254.90213013	         17.21824837	        193.32301331	        -34.09983444	
          0.25833330	        200.45567322	        -58.67631531	        253.80744934	         44.22331238	        212.40806580	        -29.15607071	
          0.26666662	        183.18084717	        -84.86107635	        251.00962830	         63.55931473	        232.08351135	        -24.21105194	
          0.27499995	        166.00146484	       -103.10539246	        249.02670288	         73.00815582	        251.88520813	        -19.83890533	
          0.28333330	        153.73376465	       -113.30867767	        245.65644836	         73.06702423	        271.84387207	        -16.63349152	
          0.29166663	        148.49981689	       -116.37556458	        240.72036743	         65.93863678	        291.07937622	        -14.61638927	
          0.29999995	        148.45857239	       -116.56658173	        233.26458740	         55.37899017	        309.89086914	        -13.73907757	
          0.30833328	        143.69322205	       -114.11264801	        225.47125244	         44.44915390	        328.55654907	        -13.42374802	
          0.31666663	        139.55395508	       -112.57799530	        214.48403931	         35.42677307	        347.92156982	        -13.46918583	
          0.32499996	        129.42353821	       -109.14413452	        204.13412476	         28.80814743	        368.70147705	        -13.32847214	
          0.33333328	        122.10986328	       -106.70309448	        190.56742859	         25.18870163	        390.61367798	        -13.29747677	
          0.34166664	        112.77524567	       -102.31595612	        178.15783691	         22.94980812	        412.58053589	        -13.11601257	
          0.34999996	        108.44611359	        -96.94377899	        162.33055115	         20.89089012	        434.61682129	        -12.89917469	
          0.35833329	        104.58110046	        -89.13368988	        145.12155151	         17.99950600	        458.08908081	        -12.53994846	
          0.36666662	         97.87171936	        -83.74366760	        130.28343201	         14.48886204	        481.41900635	        -12.16151619	
          0.37499994	         86.41951752	        -79.59951019	        118.18322754	         10.39420700	        503.60623169	        -11.61189270	
          0.38333330	         77.83132935	        -79.02530670	        105.68262482	          6.21701241	        526.10009766	        -11.03002071	
          0.39166662	         68.14334869	        -78.97129822	         95.03603363	          1.96923435	        547.18359375	        -10.42950249	
          0.39999998	         62.85802460	        -78.33027649	         85.15553284	         -1.71080971	        567.43243408	        -10.05987835	
          0.40833330	         59.60079193	        -75.41238403	         77.44039917	         -5.33991671	        586.69677734	         -9.97035599	
          0.41666663	         63.75884628	        -70.48318481	         66.84816742	         -9.69935894	        604.59881592	        -10.10436153	
          0.42499995	         60.20662689	        -62.10906219	         58.79733658	        -15.41654873	        621.35339355	        -10.36111927	
          0.43333328	         56.10902786	        -50.91753006	         49.91259003	        -22.30522728	        638.85742188	        -10.64191246	
          0.44166660	         49.21440887	        -37.95814133	         40.59888840	        -29.54555511	        656.39477539	        -10.81412411	
          0.44999996	         47.96100235	        -27.26432037	         26.96495819	        -36.02338028	        674.70159912	        -10.79630947	
          0.45833328	         45.06467819	        -22.75708961	         12.02367401	        -40.98910141	        694.18817139	        -10.65048122	
          0.46666664	         38.86797333	        -23.64546585	         -1.47106707	        -43.97222137	        713.94104004	        -10.44916725	
          0.47499996	         30.62915039	        -26.38441467	        -14.03625011	        -45.46043396	        732.56030273	        -10.25840855	
          0.48333329	         23.06565475	        -29.33180428	        -26.60452461	        -46.56224060	        750.80963135	        -10.16693115	
          0.49166662	         12.17383766	        -33.39338303	        -37.55548477	        -47.90294266	        767.38848877	        -10.28405857	
          0.49999997	          2.22040462	        -37.19002914	        -48.01282883	        -49.63236237	        782.71905518	        -10.71091175	
          0.50833333	         -4.86356163	        -36.42319107	        -60.08507156	        -51.72299957	        797.82751465	        -11.42034054	
          0.51666665	         -9.32715130	        -31.64260292	        -72.88227844	        -53.50969315	        813.46984863	        -12.29375267	
          0.52499998	        -14.81569862	        -27.13587189	        -85.02105713	        -54.51443863	        829.11010742	        -13.25405216	
          0.53333330	        -18.03580284	        -23.06747627	        -97.04718781	        -55.10497665	        845.41339111	        -14.15495968	
          0.54166663	        -21.74562263	        -16.94315338	       -109.13092804	        -55.85534286	        861.73272705	        -14.75025463	
          0.54999995	        -24.25969315	         -7.55924654	       -122.36867523	        -57.44874573	        878.52050781	        -14.84462547	
          0.55833328	        -34.31497574	          1.13438404	       -132.30041504	        -59.66987228	        893.70861816	        -14.44811821	
          0.56666660	        -41.83142471	          4.66571426	       -144.04541016	        -61.27642059	        909.11602783	        -13.75465870	
          0.57499993	        -50.80906296	          5.34604836	       -155.31842041	        -62.25706863	        924.03100586	        -12.95546913	
          0.58333325	        -60.49429321	          3.85586882	       -166.16905212	        -62.42205811	        937.93505859	        -12.22661114	
          0.59166658	        -69.44046021	         -0.85418040	       -177.25782776	        -61.49277496	        951.00567627	        -11.77221107	
          0.59999996	        -78.43688202	         -4.70100307	       -186.88357544	        -61.12096405	        965.42993164	        -11.72279739	
          0.60833329	        -88.41128540	         -5.32944870	       -194.92527771	        -62.32466888	        982.99133301	        -12.00641251	
          0.61666662	       -101.50903320	         -2.38557506	       -199.99769592	        -65.31037903	       1002.39929199	        -12.41672707	
          0.62500000	       -131.94322205	          3.91951728	       -195.03898621	        -70.19898987	       1024.07836914	        -12.76936436	
